<?xml version="1.0" encoding="utf-8"?>
<!-- Generator: Adobe Illustrator 26.1.0, SVG Export Plug-In . SVG Version: 6.00 Build 0)  -->
<!DOCTYPE svg PUBLIC "-//W3C//DTD SVG 1.1//EN" "http://www.w3.org/Graphics/SVG/1.1/DTD/svg11.dtd" [
	<!ENTITY ns_extend "http://ns.adobe.com/Extensibility/1.0/">
	<!ENTITY ns_ai "http://ns.adobe.com/AdobeIllustrator/10.0/">
	<!ENTITY ns_graphs "http://ns.adobe.com/Graphs/1.0/">
	<!ENTITY ns_vars "http://ns.adobe.com/Variables/1.0/">
	<!ENTITY ns_imrep "http://ns.adobe.com/ImageReplacement/1.0/">
	<!ENTITY ns_sfw "http://ns.adobe.com/SaveForWeb/1.0/">
	<!ENTITY ns_custom "http://ns.adobe.com/GenericCustomNamespace/1.0/">
	<!ENTITY ns_adobe_xpath "http://ns.adobe.com/XPath/1.0/">
	<!ENTITY st0 "fill:#FBFFFF;stroke:#666666;stroke-width:0.75;stroke-miterlimit:10;">
	<!ENTITY st1 "clip-path:url(#SVGID_00000157993370540331756800000003715219255476135612_);">
	<!ENTITY st2 "fill:#FFBD00;">
	<!ENTITY st3 "fill:#FF5400;">
	<!ENTITY st4 "fill:#FF0054;">
	<!ENTITY st5 "fill:#9E0059;">
	<!ENTITY st6 "fill:#390099;">
	<!ENTITY st7 "font-family:'Montserrat-Bold';">
	<!ENTITY st8 "font-size:8px;">
]>
<svg version="1.1" id="layer" xmlns:x="&ns_extend;" xmlns:i="&ns_ai;" xmlns:graph="&ns_graphs;"
	 xmlns="http://www.w3.org/2000/svg" xmlns:xlink="http://www.w3.org/1999/xlink" x="0px" y="0px" viewBox="0 0 164.804 385.176"
	 style="enable-background:new 0 0 164.804 385.176;" xml:space="preserve">
<metadata>
	<sfw  xmlns="&ns_sfw;">
		<slices></slices>
		<sliceSourceBounds  bottomLeftOrigin="true" height="484.489" width="276.268" x="230.178" y="-676.934"></sliceSourceBounds>
	</sfw>
</metadata>
<path style="&st0;" d="M65.785,62.55c0-2.209,1.56-4,3.485-4s3.485,1.791,3.485,4"/>
<path style="&st0;" d="M107.729,145.214c0-2.209,1.56-4,3.485-4s3.485,1.791,3.485,4"/>
<g>
	<defs>
		<path id="SVGID_1_" d="M153.502,331.176c2.093-0.333,4.186-0.667,6.279-1c-2.511-3-5.023-6-7.534-9
			c2.093-0.667,4.186-1.333,6.279-2c-5.86-6.667-11.72-13.333-17.58-20c4.418,0.829,14.321-4.516,15.068-7.001
			c-17.198-14.159-20.837-18.336-20.091-18.999c0.985,0.086,7.555-0.107,8.79-1c-7.534-8.333-15.069-16.667-22.603-25
			c4.476,0.009,12.757-2.057,16.324-4c-2.511-2.667-5.023-5.333-7.534-8c2.692,0.71,9.533-0.633,11.302-2
			c-11.523-6.705-28.535-30.181-30.137-42c2.084,1.547,13.227,1.564,16.324-1c-4.417-3.307-10.86-11.785-12.557-17
			c2.093,0,4.186,0,6.279,0c-6.762-8.188-14.551-20.532-18.836-30c3.425,1.213,12.582,1.3,16.324,0
			c-7.855-8.387-17.659-24.193-21.347-35c3.349,0,6.697,0,10.046,0c-2.511-3.333-5.023-6.667-7.534-10
			c3.349-0.333,6.697-0.667,10.046-1c-8.684-6.556-19.714-27.538-19.464-37.5c3.349,0.333,6.697,0.667,10.046,1
			c-10.03-9.888-19.57-34.408-18.836-46c0.735,11.591-8.808,36.115-18.836,46c3.349-0.333,6.697-0.667,10.046-1
			c0.249,9.966-10.779,30.941-19.464,37.5c3.349,0.333,6.697,0.667,10.046,1c-2.511,3.333-5.023,6.667-7.534,10
			c3.349,0,6.697,0,10.046,0c-3.69,10.809-13.491,26.611-21.347,35c3.743,1.301,12.899,1.213,16.324,0
			c-4.286,9.469-12.073,21.811-18.836,30c2.093,0,4.186,0,6.279,0c-1.698,5.217-8.139,13.692-12.557,17
			c3.1,2.565,14.239,2.546,16.324,1c-1.605,11.824-18.613,35.292-30.137,42c1.768,1.367,8.61,2.71,11.302,2
			c-2.511,2.667-5.023,5.333-7.534,8c3.567,1.943,11.849,4.009,16.324,4c-7.534,8.333-15.069,16.667-22.603,25
			c1.213,0.908,7.835,1.056,8.79,0.999c0.745,0.664-2.893,4.841-20.092,19.001c0.756,2.471,10.646,7.843,15.069,7
			c-5.86,6.667-11.72,13.333-17.58,20c2.093,0.667,4.186,1.333,6.279,2c-2.511,3-5.023,6-7.534,9c2.093,0.333,4.186,0.667,6.279,1
			c-3.767,4-7.534,8-11.302,12c24.045,0.599,51.849-1.562,72.832-5c-1.674,15.667-3.349,31.333-5.023,47c3.953,0,5.928,0,6.855,0
			c7.82,0,13.379,0,22.027,0c-1.674-15.667-3.349-31.333-5.023-47c20.973,3.437,48.796,5.6,72.832,5
			C161.037,339.176,157.27,335.176,153.502,331.176z"/>
	</defs>
	<clipPath id="SVGID_00000035524097217618976340000007162058070203253376_">
		<use xlink:href="#SVGID_1_"  style="overflow:visible;"/>
	</clipPath>
	<g style="clip-path:url(#SVGID_00000035524097217618976340000007162058070203253376_);">
		<path style="&st2;" d="M153.088,69.518C103.439,86.051,53.23,94.967,0.842,94.183C6.01,77.544,11.177,60.905,16.345,44.266
			C57.094,20.947,96.771-4.173,137.585-27.38C142.753,4.919,147.92,37.219,153.088,69.518z"/>
		<path style="&st3;" d="M168.591,166.416c-62.938,11.137-124.498,2.288-183.251-22.316c5.168-16.639,10.335-33.278,15.503-49.917
			c52.388,0.784,102.597-8.132,152.246-24.665C158.256,101.817,163.423,134.116,168.591,166.416z"/>
		<path style="&st4;" d="M184.094,263.314c-78.529,5.18-151.178-24.261-214.257-69.297c5.168-16.639,10.335-33.278,15.503-49.917
			c58.754,24.604,120.314,33.453,183.251,22.316C173.759,198.715,178.926,231.014,184.094,263.314z"/>
		<path style="&st5;" d="M199.596,360.212c-93.536,0.953-179.655-54.485-245.263-116.278c5.168-16.639,10.335-33.278,15.503-49.917
			c63.079,45.036,135.728,74.477,214.257,69.297C189.261,295.613,194.429,327.912,199.596,360.212z"/>
		<path style="&st6;" d="M215.099,457.109C105.348,451.077,8.671,372.124-61.169,293.851c5.168-16.639,10.335-33.278,15.503-49.917
			c65.607,61.793,151.727,117.231,245.263,116.278C204.764,392.511,209.932,424.81,215.099,457.109z"/>
	</g>
</g>
<g>
	<path style="&st0;" d="M52.971,224.081c0-2.209,1.56-4,3.485-4s3.485,1.791,3.485,4"/>
	<circle style="&st0;" cx="56.473" cy="234.509" r="10.879"/>
</g>
<text transform="matrix(1 0 0 1 48.301 237.376)" style="&st4; &st7; &st8;">35%</text>
<g>
	<path style="&st0;" d="M127.344,314.125c0-2.209,1.56-4,3.485-4s3.485,1.791,3.485,4"/>
	<circle style="&st0;" cx="130.846" cy="324.552" r="10.879"/>
</g>
<text transform="matrix(1 0 0 1 122.5062 327.4196)" style="&st5; &st7; &st8;">37%</text>
<g>
	<path style="&st0;" d="M7.752,334.253c0-2.209,1.56-4,3.485-4s3.485,1.791,3.485,4"/>
	<circle style="&st0;" cx="11.254" cy="344.681" r="10.879"/>
</g>
<text transform="matrix(1 0 0 1 5.3465 347.5483)" style="&st6; &st7; &st8;">3%</text>
<circle style="&st0;" cx="111.232" cy="155.641" r="10.879"/>
<text transform="matrix(1 0 0 1 102.6555 158.5087)" style="&st3; &st7; &st8;">20%</text>
<circle style="&st0;" cx="69.287" cy="72.978" r="10.879"/>
<text transform="matrix(1 0 0 1 63.4394 75.8454)" style="&st2; &st7; &st8;">5%</text>
<polygon style="&st0;" points="82.424,0.847 85.125,6.321 91.165,7.198 86.795,11.459 87.827,17.474 82.424,14.634 77.022,17.474 
	78.053,11.459 73.683,7.198 79.723,6.321 "/>
</svg>
