<?xml version="1.0" encoding="utf-8"?>
<!-- Generator: Adobe Illustrator 26.1.0, SVG Export Plug-In . SVG Version: 6.00 Build 0)  -->
<!DOCTYPE svg PUBLIC "-//W3C//DTD SVG 1.1//EN" "http://www.w3.org/Graphics/SVG/1.1/DTD/svg11.dtd" [
	<!ENTITY ns_extend "http://ns.adobe.com/Extensibility/1.0/">
	<!ENTITY ns_ai "http://ns.adobe.com/AdobeIllustrator/10.0/">
	<!ENTITY ns_graphs "http://ns.adobe.com/Graphs/1.0/">
	<!ENTITY ns_vars "http://ns.adobe.com/Variables/1.0/">
	<!ENTITY ns_imrep "http://ns.adobe.com/ImageReplacement/1.0/">
	<!ENTITY ns_sfw "http://ns.adobe.com/SaveForWeb/1.0/">
	<!ENTITY ns_custom "http://ns.adobe.com/GenericCustomNamespace/1.0/">
	<!ENTITY ns_adobe_xpath "http://ns.adobe.com/XPath/1.0/">
	<!ENTITY st0 "fill:#FBFFFF;stroke:#666666;stroke-width:0.75;stroke-miterlimit:10;">
	<!ENTITY st1 "clip-path:url(#SVGID_00000036234909730729650130000007588973352192329642_);">
	<!ENTITY st2 "fill:#FFBD00;">
	<!ENTITY st3 "fill:#FF5400;">
	<!ENTITY st4 "fill:#FF0054;">
	<!ENTITY st5 "fill:#9E0059;">
	<!ENTITY st6 "fill:#390099;">
	<!ENTITY st7 "clip-path:url(#SVGID_00000181803983621277097560000009033020199127378355_);">
	<!ENTITY st8 "font-family:'Montserrat-Bold';">
	<!ENTITY st9 "font-size:8px;">
]>
<svg version="1.1" id="layer" xmlns:x="&ns_extend;" xmlns:i="&ns_ai;" xmlns:graph="&ns_graphs;"
	 xmlns="http://www.w3.org/2000/svg" xmlns:xlink="http://www.w3.org/1999/xlink" x="0px" y="0px" viewBox="0 0 142.1 355.935"
	 style="enable-background:new 0 0 142.1 355.935;" xml:space="preserve">
<metadata>
	<sfw  xmlns="&ns_sfw;">
		<slices></slices>
		<sliceSourceBounds  bottomLeftOrigin="true" height="559.66" width="1629.203" x="-1122.757" y="-676.934"></sliceSourceBounds>
	</sfw>
</metadata>
<path style="&st0;" d="M65.785,62.55c0-2.209,1.56-4,3.485-4s3.485,1.791,3.485,4"/>
<path style="&st0;" d="M107.729,145.214c0-2.209,1.56-4,3.485-4s3.485,1.791,3.485,4"/>
<g>
	<path style="&st0;" d="M52.971,224.081c0-2.209,1.56-4,3.485-4s3.485,1.791,3.485,4"/>
	<circle style="&st0;" cx="56.473" cy="234.509" r="10.879"/>
</g>
<text transform="matrix(1 0 0 1 48.301 237.376)" style="&st4; &st8; &st9;">26%</text>
<g>
	<path style="&st0;" d="M127.344,314.125c0-2.209,1.56-4,3.485-4s3.485,1.791,3.485,4"/>
	<circle style="&st0;" cx="130.846" cy="324.552" r="10.879"/>
</g>
<text transform="matrix(1 0 0 1 122.5061 327.4196)" style="&st5; &st8; &st9;">42%</text>
<g>
	<path style="&st0;" d="M7.752,334.253c0-2.209,1.56-4,3.485-4s3.485,1.791,3.485,4"/>
	<circle style="&st0;" cx="11.254" cy="344.681" r="10.879"/>
</g>
<text transform="matrix(1 0 0 1 5.3465 347.5483)" style="&st6; &st8; &st9;">12%</text>
<circle style="&st0;" cx="111.232" cy="155.641" r="10.879"/>
<text transform="matrix(1 0 0 1 102.6554 158.5087)" style="&st3; &st8; &st9;">16%</text>
<circle style="&st0;" cx="69.287" cy="72.978" r="10.879"/>
<text transform="matrix(1 0 0 1 63.4394 75.8454)" style="&st2; &st8; &st9;">4%</text>
<polygon style="&st0;" points="82.424,0.847 85.125,6.321 91.165,7.198 86.795,11.459 87.827,17.474 82.424,14.634 77.022,17.474 
	78.053,11.459 73.683,7.198 79.723,6.321 "/>
</svg>
