<?xml version="1.0" encoding="utf-8"?>
<!-- Generator: Adobe Illustrator 26.1.0, SVG Export Plug-In . SVG Version: 6.00 Build 0)  -->
<!DOCTYPE svg PUBLIC "-//W3C//DTD SVG 1.1//EN" "http://www.w3.org/Graphics/SVG/1.1/DTD/svg11.dtd" [
	<!ENTITY ns_extend "http://ns.adobe.com/Extensibility/1.0/">
	<!ENTITY ns_ai "http://ns.adobe.com/AdobeIllustrator/10.0/">
	<!ENTITY ns_graphs "http://ns.adobe.com/Graphs/1.0/">
	<!ENTITY ns_vars "http://ns.adobe.com/Variables/1.0/">
	<!ENTITY ns_imrep "http://ns.adobe.com/ImageReplacement/1.0/">
	<!ENTITY ns_sfw "http://ns.adobe.com/SaveForWeb/1.0/">
	<!ENTITY ns_custom "http://ns.adobe.com/GenericCustomNamespace/1.0/">
	<!ENTITY ns_adobe_xpath "http://ns.adobe.com/XPath/1.0/">
	<!ENTITY st0 "fill:#FBFFFF;stroke:#666666;stroke-width:0.75;stroke-miterlimit:10;">
	<!ENTITY st1 "clip-path:url(#SVGID_00000121962080507081037880000008610554885573993629_);">
	<!ENTITY st2 "fill:#FFBD00;">
	<!ENTITY st3 "fill:#FF5400;">
	<!ENTITY st4 "fill:#FF0054;">
	<!ENTITY st5 "fill:#9E0059;">
	<!ENTITY st6 "fill:#390099;">
]>
<svg version="1.1" id="layer" xmlns:x="&ns_extend;" xmlns:i="&ns_ai;" xmlns:graph="&ns_graphs;"
	 xmlns="http://www.w3.org/2000/svg" xmlns:xlink="http://www.w3.org/1999/xlink" x="0px" y="0px" viewBox="0 0 164.5 370.5"
	 style="enable-background:new 0 0 164.5 370.5;" xml:space="preserve">
<metadata>
	<sfw  xmlns="&ns_sfw;">
		<slices></slices>
		<sliceSourceBounds  bottomLeftOrigin="true" height="518.178" width="1308.759" x="-802.312" y="-676.934"></sliceSourceBounds>
	</sfw>
</metadata>
<g>
	<path style="&st2;" d="M152.784,54.842C103.136,71.375,52.926,80.291,0.538,79.507C5.706,62.868,10.874,46.229,16.041,29.59
		C56.79,6.271,96.467-18.848,137.281-42.056C142.449-9.756,147.616,22.543,152.784,54.842z"/>
	<path style="&st3;" d="M168.287,151.74c-62.938,11.137-124.498,2.288-183.251-22.316c5.168-16.639,10.335-33.278,15.503-49.917
		c52.388,0.784,102.597-8.132,152.246-24.665C157.952,87.142,163.119,119.441,168.287,151.74z"/>
	<path style="&st4;" d="M183.79,248.638c-78.529,5.18-151.178-24.261-214.257-69.297c5.168-16.639,10.335-33.278,15.503-49.917
		c58.754,24.604,120.314,33.453,183.251,22.316C173.455,184.04,178.622,216.339,183.79,248.638z"/>
	<path style="&st5;" d="M199.293,345.536c-93.536,0.953-179.655-54.485-245.263-116.278c5.168-16.639,10.335-33.278,15.503-49.917
		c63.079,45.036,135.728,74.477,214.257,69.297C188.957,280.937,194.125,313.237,199.293,345.536z"/>
	<path style="&st6;" d="M214.795,442.434C105.044,436.401,8.367,357.449-61.473,279.176c5.168-16.639,10.335-33.278,15.503-49.917
		c65.607,61.793,151.727,117.231,245.263,116.278C204.46,377.835,209.628,410.134,214.795,442.434z"/>
</g>
</svg>
